<?xml version="1.0" encoding="UTF-8"?>
<svg id="Layer_2" data-name="Layer 2" xmlns="http://www.w3.org/2000/svg" viewBox="0 0 350 350">
  <defs>
    <style>
      .cls-1 {
        fill: #30e017;
      }

      .cls-2 {
        fill: #9e6b49;
      }
    </style>
  </defs>
  <path class="cls-1" d="m94.62,2.97l-47.92,62.34c-5.8,7.55-3.04,18.47,5.66,22.43h0c30.16,13.73,64.88,13.73,95.04,0l.23-.1c8.64-3.93,11.44-14.72,5.78-22.28L106.81,3.05c-3.02-4.04-9.11-4.08-12.18-.08Z"/>
  <path class="cls-1" d="m168.94,155.88l-.33.15c-21.82,9.93-45.29,14.89-68.77,14.89s-46.95-4.96-68.77-14.89c-12.6-5.74-16.6-21.54-8.2-32.46l17.96-23.36c.87.6,1.81,1.14,2.82,1.6,17.84,8.12,37.04,12.18,56.22,12.18s38.38-4.06,56.22-12.18l.27-.12c1.14-.52,2.18-1.14,3.14-1.84l17.8,23.8c8.18,10.94,4.13,26.55-8.37,32.23Z"/>
  <path class="cls-1" d="m184.52,238.94l-.4.18c-26.76,12.18-55.54,18.26-84.32,18.26s-57.56-6.08-84.32-18.26C.03,232.09-4.86,212.72,5.43,199.33l22.02-28.65c1.06.74,2.22,1.4,3.45,1.96,21.88,9.95,45.41,14.93,68.94,14.93s47.06-4.98,68.94-14.93l.33-.15c1.39-.64,2.68-1.39,3.85-2.25l21.82,29.18c10.03,13.41,5.06,32.55-10.26,39.52Z"/>
  <rect class="cls-2" x="67.18" y="266.99" width="65.64" height="33"/>
</svg>