<?xml version="1.0" encoding="UTF-8"?>
<svg id="Layer_2" data-name="Layer 2" xmlns="http://www.w3.org/2000/svg" viewBox="0 0 300 300">
  <defs>
    <style>
      .cls-1 {
        fill: #30e017;
      }

      .cls-2 {
        fill: #9e6b49;
      }
    </style>
  </defs>
  <path class="cls-1" d="m145.59,29.03l-39.31,51.14c-4.76,6.19-2.5,15.15,4.65,18.4h0c24.74,11.26,53.22,11.26,77.96,0l.18-.08c7.08-3.22,9.38-12.07,4.74-18.27l-38.24-51.11c-2.48-3.31-7.47-3.34-9.99-.06Z"/>
  <path class="cls-1" d="m206.55,154.47l-.27.12c-17.9,8.15-37.15,12.22-56.41,12.22s-38.51-4.07-56.41-12.22c-10.34-4.71-13.61-17.67-6.73-26.63l14.73-19.17c.71.5,1.48.93,2.31,1.31,14.64,6.66,30.38,9.99,46.12,9.99s31.48-3.33,46.12-9.99l.22-.1c.93-.43,1.79-.93,2.58-1.51l14.6,19.52c6.71,8.97,3.39,21.78-6.86,26.44Z"/>
  <path class="cls-1" d="m219.33,222.6l-.33.15c-21.95,9.99-45.56,14.98-69.17,14.98s-47.22-4.99-69.17-14.98c-12.67-5.77-16.69-21.66-8.25-32.65l18.06-23.5c.87.61,1.82,1.15,2.83,1.61,17.95,8.16,37.25,12.25,56.55,12.25s38.6-4.08,56.55-12.25l.27-.12c1.14-.52,2.2-1.14,3.16-1.85l17.9,23.94c8.23,11,4.15,26.7-8.41,32.42Z"/>
  <rect class="cls-2" x="123.08" y="246.33" width="53.84" height="27.07"/>
</svg>